# Blender v3.0.1 OBJ File: ''
# www.blender.org
mtllib buoy.mtl
o Cylinder
v 0.000000 -0.015138 -1.000000
v 0.000000 0.445073 -1.000000
v 0.195090 -0.015138 -0.980785
v 0.195090 0.445073 -0.980785
v 0.382683 -0.015138 -0.923880
v 0.382683 0.445073 -0.923880
v 0.555570 -0.015138 -0.831470
v 0.555570 0.445073 -0.831470
v 0.707107 -0.015138 -0.707107
v 0.707107 0.445073 -0.707107
v 0.831470 -0.015138 -0.555570
v 0.831470 0.445073 -0.555570
v 0.923880 -0.015138 -0.382683
v 0.923880 0.445073 -0.382683
v 0.980785 -0.015138 -0.195090
v 0.980785 0.445073 -0.195090
v 1.000000 -0.015138 0.000000
v 1.000000 0.445073 0.000000
v 0.980785 -0.015138 0.195090
v 0.980785 0.445073 0.195090
v 0.923880 -0.015138 0.382683
v 0.923880 0.445073 0.382683
v 0.831470 -0.015138 0.555570
v 0.831470 0.445073 0.555570
v 0.707107 -0.015138 0.707107
v 0.707107 0.445073 0.707107
v 0.555570 -0.015138 0.831470
v 0.555570 0.445073 0.831470
v 0.382683 -0.015138 0.923880
v 0.382683 0.445073 0.923880
v 0.195090 -0.015138 0.980785
v 0.195090 0.445073 0.980785
v -0.000000 -0.015138 1.000000
v -0.000000 0.445073 1.000000
v -0.195090 -0.015138 0.980785
v -0.195090 0.445073 0.980785
v -0.382683 -0.015138 0.923880
v -0.382683 0.445073 0.923880
v -0.555570 -0.015138 0.831470
v -0.555570 0.445073 0.831470
v -0.707107 -0.015138 0.707107
v -0.707107 0.445073 0.707107
v -0.831469 -0.015138 0.555570
v -0.831469 0.445073 0.555570
v -0.923880 -0.015138 0.382684
v -0.923880 0.445073 0.382684
v -0.980785 -0.015138 0.195090
v -0.980785 0.445073 0.195090
v -1.000000 -0.015138 -0.000000
v -1.000000 0.445073 -0.000000
v -0.980785 -0.015138 -0.195090
v -0.980785 0.445073 -0.195090
v -0.923879 -0.015138 -0.382684
v -0.923879 0.445073 -0.382684
v -0.831470 -0.015138 -0.555570
v -0.831470 0.445073 -0.555570
v -0.707107 -0.015138 -0.707107
v -0.707107 0.445073 -0.707107
v -0.555570 -0.015138 -0.831470
v -0.555570 0.445073 -0.831470
v -0.382683 -0.015138 -0.923880
v -0.382683 0.445073 -0.923880
v -0.195090 -0.015138 -0.980785
v -0.195090 0.445073 -0.980785
v -0.000000 0.647978 -0.000000
vt 1.000000 0.500000
vt 1.000000 1.000000
vt 0.968750 1.000000
vt 0.968750 0.500000
vt 0.937500 1.000000
vt 0.937500 0.500000
vt 0.906250 1.000000
vt 0.906250 0.500000
vt 0.875000 1.000000
vt 0.875000 0.500000
vt 0.843750 1.000000
vt 0.843750 0.500000
vt 0.812500 1.000000
vt 0.812500 0.500000
vt 0.781250 1.000000
vt 0.781250 0.500000
vt 0.750000 1.000000
vt 0.750000 0.500000
vt 0.718750 1.000000
vt 0.718750 0.500000
vt 0.687500 1.000000
vt 0.687500 0.500000
vt 0.656250 1.000000
vt 0.656250 0.500000
vt 0.625000 1.000000
vt 0.625000 0.500000
vt 0.593750 1.000000
vt 0.593750 0.500000
vt 0.562500 1.000000
vt 0.562500 0.500000
vt 0.531250 1.000000
vt 0.531250 0.500000
vt 0.500000 1.000000
vt 0.500000 0.500000
vt 0.468750 1.000000
vt 0.468750 0.500000
vt 0.437500 1.000000
vt 0.437500 0.500000
vt 0.406250 1.000000
vt 0.406250 0.500000
vt 0.375000 1.000000
vt 0.375000 0.500000
vt 0.343750 1.000000
vt 0.343750 0.500000
vt 0.312500 1.000000
vt 0.312500 0.500000
vt 0.281250 1.000000
vt 0.281250 0.500000
vt 0.250000 1.000000
vt 0.250000 0.500000
vt 0.218750 1.000000
vt 0.218750 0.500000
vt 0.187500 1.000000
vt 0.187500 0.500000
vt 0.156250 1.000000
vt 0.156250 0.500000
vt 0.125000 1.000000
vt 0.125000 0.500000
vt 0.093750 1.000000
vt 0.093750 0.500000
vt 0.062500 1.000000
vt 0.062500 0.500000
vt 0.296822 0.485388
vt 0.250000 0.490000
vt 0.203178 0.485388
vt 0.158156 0.471731
vt 0.250000 0.250000
vt 0.471731 0.341844
vt 0.449553 0.383337
vt 0.419706 0.419706
vt 0.383337 0.449553
vt 0.341844 0.471731
vt 0.031250 1.000000
vt 0.031250 0.500000
vt 0.000000 1.000000
vt 0.000000 0.500000
vt 0.750000 0.490000
vt 0.796822 0.485388
vt 0.841844 0.471731
vt 0.883337 0.449553
vt 0.919706 0.419706
vt 0.949553 0.383337
vt 0.971731 0.341844
vt 0.985388 0.296822
vt 0.990000 0.250000
vt 0.985388 0.203178
vt 0.971731 0.158156
vt 0.949553 0.116663
vt 0.919706 0.080294
vt 0.883337 0.050447
vt 0.841844 0.028269
vt 0.796822 0.014612
vt 0.750000 0.010000
vt 0.703178 0.014612
vt 0.658156 0.028269
vt 0.616663 0.050447
vt 0.580294 0.080294
vt 0.550447 0.116663
vt 0.528269 0.158156
vt 0.514612 0.203178
vt 0.510000 0.250000
vt 0.514612 0.296822
vt 0.528269 0.341844
vt 0.550447 0.383337
vt 0.580294 0.419706
vt 0.616663 0.449553
vt 0.658156 0.471731
vt 0.703178 0.485388
vt 0.341844 0.028269
vt 0.028269 0.158156
vt 0.050447 0.116663
vt 0.080294 0.080294
vt 0.116663 0.050447
vt 0.158156 0.028269
vt 0.203178 0.014612
vt 0.250000 0.010000
vt 0.296822 0.014612
vt 0.383337 0.050447
vt 0.419706 0.080294
vt 0.449553 0.116663
vt 0.471731 0.158156
vt 0.485388 0.203178
vt 0.490000 0.250000
vt 0.485388 0.296822
vt 0.116663 0.449553
vt 0.080294 0.419706
vt 0.050447 0.383337
vt 0.028269 0.341844
vt 0.014612 0.296822
vt 0.010000 0.250000
vt 0.014612 0.203178
vn 0.0980 0.0000 -0.9952
vn 0.2903 0.0000 -0.9569
vn 0.4714 0.0000 -0.8819
vn 0.6344 0.0000 -0.7730
vn 0.7730 0.0000 -0.6344
vn 0.8819 0.0000 -0.4714
vn 0.9569 0.0000 -0.2903
vn 0.9952 0.0000 -0.0980
vn 0.9952 0.0000 0.0980
vn 0.9569 0.0000 0.2903
vn 0.8819 0.0000 0.4714
vn 0.7730 0.0000 0.6344
vn 0.6344 0.0000 0.7730
vn 0.4714 0.0000 0.8819
vn 0.2903 0.0000 0.9569
vn 0.0980 0.0000 0.9952
vn -0.0980 0.0000 0.9952
vn -0.2903 0.0000 0.9569
vn -0.4714 0.0000 0.8819
vn -0.6344 0.0000 0.7730
vn -0.7730 0.0000 0.6344
vn -0.8819 0.0000 0.4714
vn -0.9569 0.0000 0.2903
vn -0.9952 0.0000 0.0980
vn -0.9952 0.0000 -0.0980
vn -0.9569 0.0000 -0.2903
vn -0.8819 0.0000 -0.4714
vn -0.7730 0.0000 -0.6344
vn -0.6344 0.0000 -0.7730
vn -0.4714 0.0000 -0.8819
vn 0.0692 0.9835 -0.1671
vn -0.2903 0.0000 -0.9569
vn -0.0980 0.0000 -0.9952
vn 0.0000 -1.0000 0.0000
vn -0.0692 0.9835 0.1671
vn 0.1671 0.9835 0.0692
vn -0.1671 0.9835 -0.0692
usemtl None
s off
f 1/1/1 2/2/1 4/3/1 3/4/1
f 3/4/2 4/3/2 6/5/2 5/6/2
f 5/6/3 6/5/3 8/7/3 7/8/3
f 7/8/4 8/7/4 10/9/4 9/10/4
f 9/10/5 10/9/5 12/11/5 11/12/5
f 11/12/6 12/11/6 14/13/6 13/14/6
f 13/14/7 14/13/7 16/15/7 15/16/7
f 15/16/8 16/15/8 18/17/8 17/18/8
f 17/18/9 18/17/9 20/19/9 19/20/9
f 19/20/10 20/19/10 22/21/10 21/22/10
f 21/22/11 22/21/11 24/23/11 23/24/11
f 23/24/12 24/23/12 26/25/12 25/26/12
f 25/26/13 26/25/13 28/27/13 27/28/13
f 27/28/14 28/27/14 30/29/14 29/30/14
f 29/30/15 30/29/15 32/31/15 31/32/15
f 31/32/16 32/31/16 34/33/16 33/34/16
f 33/34/17 34/33/17 36/35/17 35/36/17
f 35/36/18 36/35/18 38/37/18 37/38/18
f 37/38/19 38/37/19 40/39/19 39/40/19
f 39/40/20 40/39/20 42/41/20 41/42/20
f 41/42/21 42/41/21 44/43/21 43/44/21
f 43/44/22 44/43/22 46/45/22 45/46/22
f 45/46/23 46/45/23 48/47/23 47/48/23
f 47/48/24 48/47/24 50/49/24 49/50/24
f 49/50/25 50/49/25 52/51/25 51/52/25
f 51/52/26 52/51/26 54/53/26 53/54/26
f 53/54/27 54/53/27 56/55/27 55/56/27
f 55/56/28 56/55/28 58/57/28 57/58/28
f 57/58/29 58/57/29 60/59/29 59/60/29
f 59/60/30 60/59/30 62/61/30 61/62/30
f 4/63/31 2/64/31 64/65/31 62/66/31 65/67/31 14/68/31 12/69/31 10/70/31 8/71/31 6/72/31
f 61/62/32 62/61/32 64/73/32 63/74/32
f 63/74/33 64/73/33 2/75/33 1/76/33
f 1/77/34 3/78/34 5/79/34 7/80/34 9/81/34 11/82/34 13/83/34 15/84/34 17/85/34 19/86/34 21/87/34 23/88/34 25/89/34 27/90/34 29/91/34 31/92/34 33/93/34 35/94/34 37/95/34 39/96/34 41/97/34 43/98/34 45/99/34 47/100/34 49/101/34 51/102/34 53/103/34 55/104/34 57/105/34 59/106/34 61/107/34 63/108/34
f 30/109/35 65/67/35 46/110/35 44/111/35 42/112/35 40/113/35 38/114/35 36/115/35 34/116/35 32/117/35
f 14/68/36 65/67/36 30/109/36 28/118/36 26/119/36 24/120/36 22/121/36 20/122/36 18/123/36 16/124/36
f 46/110/37 65/67/37 62/66/37 60/125/37 58/126/37 56/127/37 54/128/37 52/129/37 50/130/37 48/131/37
o Cylinder.001
v 0.000000 0.465054 0.356122
v 0.000000 2.465054 0.356122
v -0.069476 0.465054 0.349280
v -0.069476 2.465054 0.349280
v -0.136282 0.465054 0.329014
v -0.136282 2.465054 0.329014
v -0.197851 0.465054 0.296105
v -0.197851 2.465054 0.296105
v -0.251817 0.465054 0.251817
v -0.251817 2.465054 0.251817
v -0.296105 0.465054 0.197851
v -0.296105 2.465054 0.197851
v -0.329014 0.465054 0.136282
v -0.329014 2.465054 0.136282
v -0.349280 0.465054 0.069476
v -0.349280 2.465054 0.069476
v -0.356122 0.465054 -0.000000
v -0.356122 2.465054 -0.000000
v -0.349280 0.465054 -0.069476
v -0.349280 2.465054 -0.069476
v -0.329014 0.465054 -0.136282
v -0.329014 2.465054 -0.136282
v -0.296105 0.465054 -0.197851
v -0.296105 2.465054 -0.197851
v -0.251817 0.465054 -0.251817
v -0.251817 2.465054 -0.251817
v -0.197851 0.465054 -0.296105
v -0.197851 2.465054 -0.296105
v -0.136282 0.465054 -0.329014
v -0.136282 2.465054 -0.329014
v -0.069476 0.465054 -0.349280
v -0.069476 2.465054 -0.349280
v 0.000000 0.465054 -0.356122
v 0.000000 2.465054 -0.356122
v 0.069476 0.465054 -0.349280
v 0.069476 2.465054 -0.349280
v 0.136282 0.465054 -0.329014
v 0.136282 2.465054 -0.329014
v 0.197851 0.465054 -0.296105
v 0.197851 2.465054 -0.296105
v 0.251817 0.465054 -0.251817
v 0.251817 2.465054 -0.251817
v 0.296105 0.465054 -0.197851
v 0.296105 2.465054 -0.197851
v 0.329014 0.465054 -0.136282
v 0.329014 2.465054 -0.136282
v 0.349280 0.465054 -0.069476
v 0.349280 2.465054 -0.069476
v 0.356122 0.465054 0.000000
v 0.356122 2.465054 0.000000
v 0.349280 0.465054 0.069476
v 0.349280 2.465054 0.069476
v 0.329014 0.465054 0.136282
v 0.329014 2.465054 0.136282
v 0.296105 0.465054 0.197851
v 0.296105 2.465054 0.197851
v 0.251817 0.465054 0.251817
v 0.251817 2.465054 0.251817
v 0.197851 0.465054 0.296105
v 0.197851 2.465054 0.296105
v 0.136282 0.465054 0.329014
v 0.136282 2.465054 0.329014
v 0.069476 0.465054 0.349280
v 0.069476 2.465054 0.349280
vt 1.000000 0.500000
vt 1.000000 1.000000
vt 0.968750 1.000000
vt 0.968750 0.500000
vt 0.937500 1.000000
vt 0.937500 0.500000
vt 0.906250 1.000000
vt 0.906250 0.500000
vt 0.875000 1.000000
vt 0.875000 0.500000
vt 0.843750 1.000000
vt 0.843750 0.500000
vt 0.812500 1.000000
vt 0.812500 0.500000
vt 0.781250 1.000000
vt 0.781250 0.500000
vt 0.750000 1.000000
vt 0.750000 0.500000
vt 0.718750 1.000000
vt 0.718750 0.500000
vt 0.687500 1.000000
vt 0.687500 0.500000
vt 0.656250 1.000000
vt 0.656250 0.500000
vt 0.625000 1.000000
vt 0.625000 0.500000
vt 0.593750 1.000000
vt 0.593750 0.500000
vt 0.562500 1.000000
vt 0.562500 0.500000
vt 0.531250 1.000000
vt 0.531250 0.500000
vt 0.500000 1.000000
vt 0.500000 0.500000
vt 0.468750 1.000000
vt 0.468750 0.500000
vt 0.437500 1.000000
vt 0.437500 0.500000
vt 0.406250 1.000000
vt 0.406250 0.500000
vt 0.375000 1.000000
vt 0.375000 0.500000
vt 0.343750 1.000000
vt 0.343750 0.500000
vt 0.312500 1.000000
vt 0.312500 0.500000
vt 0.281250 1.000000
vt 0.281250 0.500000
vt 0.250000 1.000000
vt 0.250000 0.500000
vt 0.218750 1.000000
vt 0.218750 0.500000
vt 0.187500 1.000000
vt 0.187500 0.500000
vt 0.156250 1.000000
vt 0.156250 0.500000
vt 0.125000 1.000000
vt 0.125000 0.500000
vt 0.093750 1.000000
vt 0.093750 0.500000
vt 0.062500 1.000000
vt 0.062500 0.500000
vt 0.296822 0.485388
vt 0.250000 0.490000
vt 0.203178 0.485388
vt 0.158156 0.471731
vt 0.116663 0.449553
vt 0.080294 0.419706
vt 0.050447 0.383337
vt 0.028269 0.341844
vt 0.014612 0.296822
vt 0.010000 0.250000
vt 0.014612 0.203178
vt 0.028269 0.158156
vt 0.050447 0.116663
vt 0.080294 0.080294
vt 0.116663 0.050447
vt 0.158156 0.028269
vt 0.203178 0.014612
vt 0.250000 0.010000
vt 0.296822 0.014612
vt 0.341844 0.028269
vt 0.383337 0.050447
vt 0.419706 0.080294
vt 0.449553 0.116663
vt 0.471731 0.158156
vt 0.485388 0.203178
vt 0.490000 0.250000
vt 0.485388 0.296822
vt 0.471731 0.341844
vt 0.449553 0.383337
vt 0.419706 0.419706
vt 0.383337 0.449553
vt 0.341844 0.471731
vt 0.031250 1.000000
vt 0.031250 0.500000
vt 0.000000 1.000000
vt 0.000000 0.500000
vt 0.750000 0.490000
vt 0.796822 0.485388
vt 0.841844 0.471731
vt 0.883337 0.449553
vt 0.919706 0.419706
vt 0.949553 0.383337
vt 0.971731 0.341844
vt 0.985388 0.296822
vt 0.990000 0.250000
vt 0.985388 0.203178
vt 0.971731 0.158156
vt 0.949553 0.116663
vt 0.919706 0.080294
vt 0.883337 0.050447
vt 0.841844 0.028269
vt 0.796822 0.014612
vt 0.750000 0.010000
vt 0.703178 0.014612
vt 0.658156 0.028269
vt 0.616663 0.050447
vt 0.580294 0.080294
vt 0.550447 0.116663
vt 0.528269 0.158156
vt 0.514612 0.203178
vt 0.510000 0.250000
vt 0.514612 0.296822
vt 0.528269 0.341844
vt 0.550447 0.383337
vt 0.580294 0.419706
vt 0.616663 0.449553
vt 0.658156 0.471731
vt 0.703178 0.485388
vn -0.0980 0.0000 0.9952
vn -0.2903 0.0000 0.9569
vn -0.4714 0.0000 0.8819
vn -0.6344 0.0000 0.7730
vn -0.7730 0.0000 0.6344
vn -0.8819 0.0000 0.4714
vn -0.9569 0.0000 0.2903
vn -0.9952 0.0000 0.0980
vn -0.9952 0.0000 -0.0980
vn -0.9569 0.0000 -0.2903
vn -0.8819 0.0000 -0.4714
vn -0.7730 0.0000 -0.6344
vn -0.6344 0.0000 -0.7730
vn -0.4714 0.0000 -0.8819
vn -0.2903 0.0000 -0.9569
vn -0.0980 0.0000 -0.9952
vn 0.0980 0.0000 -0.9952
vn 0.2903 0.0000 -0.9569
vn 0.4714 0.0000 -0.8819
vn 0.6344 0.0000 -0.7730
vn 0.7730 0.0000 -0.6344
vn 0.8819 0.0000 -0.4714
vn 0.9569 0.0000 -0.2903
vn 0.9952 0.0000 -0.0980
vn 0.9952 0.0000 0.0980
vn 0.9569 0.0000 0.2903
vn 0.8819 0.0000 0.4714
vn 0.7730 0.0000 0.6344
vn 0.6344 0.0000 0.7730
vn 0.4714 0.0000 0.8819
vn 0.0000 1.0000 0.0000
vn 0.2903 0.0000 0.9569
vn 0.0980 0.0000 0.9952
vn 0.0000 -1.0000 -0.0000
usemtl None
s off
f 66/132/38 67/133/38 69/134/38 68/135/38
f 68/135/39 69/134/39 71/136/39 70/137/39
f 70/137/40 71/136/40 73/138/40 72/139/40
f 72/139/41 73/138/41 75/140/41 74/141/41
f 74/141/42 75/140/42 77/142/42 76/143/42
f 76/143/43 77/142/43 79/144/43 78/145/43
f 78/145/44 79/144/44 81/146/44 80/147/44
f 80/147/45 81/146/45 83/148/45 82/149/45
f 82/149/46 83/148/46 85/150/46 84/151/46
f 84/151/47 85/150/47 87/152/47 86/153/47
f 86/153/48 87/152/48 89/154/48 88/155/48
f 88/155/49 89/154/49 91/156/49 90/157/49
f 90/157/50 91/156/50 93/158/50 92/159/50
f 92/159/51 93/158/51 95/160/51 94/161/51
f 94/161/52 95/160/52 97/162/52 96/163/52
f 96/163/53 97/162/53 99/164/53 98/165/53
f 98/165/54 99/164/54 101/166/54 100/167/54
f 100/167/55 101/166/55 103/168/55 102/169/55
f 102/169/56 103/168/56 105/170/56 104/171/56
f 104/171/57 105/170/57 107/172/57 106/173/57
f 106/173/58 107/172/58 109/174/58 108/175/58
f 108/175/59 109/174/59 111/176/59 110/177/59
f 110/177/60 111/176/60 113/178/60 112/179/60
f 112/179/61 113/178/61 115/180/61 114/181/61
f 114/181/62 115/180/62 117/182/62 116/183/62
f 116/183/63 117/182/63 119/184/63 118/185/63
f 118/185/64 119/184/64 121/186/64 120/187/64
f 120/187/65 121/186/65 123/188/65 122/189/65
f 122/189/66 123/188/66 125/190/66 124/191/66
f 124/191/67 125/190/67 127/192/67 126/193/67
f 69/194/68 67/195/68 129/196/68 127/197/68 125/198/68 123/199/68 121/200/68 119/201/68 117/202/68 115/203/68 113/204/68 111/205/68 109/206/68 107/207/68 105/208/68 103/209/68 101/210/68 99/211/68 97/212/68 95/213/68 93/214/68 91/215/68 89/216/68 87/217/68 85/218/68 83/219/68 81/220/68 79/221/68 77/222/68 75/223/68 73/224/68 71/225/68
f 126/193/69 127/192/69 129/226/69 128/227/69
f 128/227/70 129/226/70 67/228/70 66/229/70
f 66/230/71 68/231/71 70/232/71 72/233/71 74/234/71 76/235/71 78/236/71 80/237/71 82/238/71 84/239/71 86/240/71 88/241/71 90/242/71 92/243/71 94/244/71 96/245/71 98/246/71 100/247/71 102/248/71 104/249/71 106/250/71 108/251/71 110/252/71 112/253/71 114/254/71 116/255/71 118/256/71 120/257/71 122/258/71 124/259/71 126/260/71 128/261/71
o Plane
v -0.000000 2.595071 0.165783
v 0.000000 2.282897 0.165783
v -0.000000 2.595071 -0.165783
v 0.000000 2.282897 -0.165783
vt 0.000000 0.000000
vt 1.000000 0.000000
vt 1.000000 1.000000
vt 0.000000 1.000000
vn 1.0000 0.0000 0.0000
usemtl None
s off
f 130/262/72 131/263/72 133/264/72 132/265/72
o Plane.001
v 0.159997 2.590698 -0.000000
v 0.159997 2.341376 -0.000000
v -0.159997 2.590698 0.000000
v -0.159997 2.341376 0.000000
vt 0.000000 0.000000
vt 1.000000 0.000000
vt 1.000000 1.000000
vt 0.000000 1.000000
vn -0.0000 -0.0000 -1.0000
usemtl None
s off
f 134/266/73 135/267/73 137/268/73 136/269/73
o Cylinder.002
v 0.000000 2.676559 0.019456
v 0.000000 2.454182 0.019456
v -0.003796 2.676559 0.019083
v -0.003796 2.454182 0.019083
v -0.007446 2.676559 0.017975
v -0.007446 2.454182 0.017975
v -0.010809 2.676559 0.016177
v -0.010809 2.454182 0.016177
v -0.013758 2.676559 0.013758
v -0.013758 2.454182 0.013758
v -0.016177 2.676559 0.010809
v -0.016177 2.454182 0.010809
v -0.017975 2.676559 0.007446
v -0.017975 2.454182 0.007446
v -0.019083 2.676559 0.003796
v -0.019083 2.454182 0.003796
v -0.019456 2.676559 -0.000000
v -0.019456 2.454182 -0.000000
v -0.019083 2.676559 -0.003796
v -0.019083 2.454182 -0.003796
v -0.017975 2.676559 -0.007446
v -0.017975 2.454182 -0.007446
v -0.016177 2.676559 -0.010809
v -0.016177 2.454182 -0.010809
v -0.013758 2.676559 -0.013758
v -0.013758 2.454182 -0.013758
v -0.010809 2.676559 -0.016177
v -0.010809 2.454182 -0.016177
v -0.007446 2.676559 -0.017975
v -0.007446 2.454182 -0.017975
v -0.003796 2.676559 -0.019083
v -0.003796 2.454182 -0.019083
v 0.000000 2.676559 -0.019456
v 0.000000 2.454182 -0.019456
v 0.003796 2.676559 -0.019083
v 0.003796 2.454182 -0.019083
v 0.007446 2.676559 -0.017975
v 0.007446 2.454182 -0.017975
v 0.010809 2.676559 -0.016177
v 0.010809 2.454182 -0.016177
v 0.013758 2.676559 -0.013758
v 0.013758 2.454182 -0.013758
v 0.016177 2.676559 -0.010809
v 0.016177 2.454182 -0.010809
v 0.017975 2.676559 -0.007446
v 0.017975 2.454182 -0.007446
v 0.019083 2.676559 -0.003796
v 0.019083 2.454182 -0.003796
v 0.019456 2.676559 0.000000
v 0.019456 2.454182 0.000000
v 0.019083 2.676559 0.003796
v 0.019083 2.454182 0.003796
v 0.017975 2.676559 0.007446
v 0.017975 2.454182 0.007446
v 0.016177 2.676559 0.010809
v 0.016177 2.454182 0.010809
v 0.013758 2.676559 0.013758
v 0.013758 2.454182 0.013758
v 0.010809 2.676559 0.016177
v 0.010809 2.454182 0.016177
v 0.007446 2.676559 0.017975
v 0.007446 2.454182 0.017975
v 0.003796 2.676559 0.019083
v 0.003796 2.454182 0.019083
vt 1.000000 0.500000
vt 0.968750 0.500000
vt 0.968750 1.000000
vt 1.000000 1.000000
vt 0.937500 0.500000
vt 0.937500 1.000000
vt 0.906250 0.500000
vt 0.906250 1.000000
vt 0.875000 0.500000
vt 0.875000 1.000000
vt 0.843750 0.500000
vt 0.843750 1.000000
vt 0.812500 0.500000
vt 0.812500 1.000000
vt 0.781250 0.500000
vt 0.781250 1.000000
vt 0.750000 0.500000
vt 0.750000 1.000000
vt 0.718750 0.500000
vt 0.718750 1.000000
vt 0.687500 0.500000
vt 0.687500 1.000000
vt 0.656250 0.500000
vt 0.656250 1.000000
vt 0.625000 0.500000
vt 0.625000 1.000000
vt 0.593750 0.500000
vt 0.593750 1.000000
vt 0.562500 0.500000
vt 0.562500 1.000000
vt 0.531250 0.500000
vt 0.531250 1.000000
vt 0.500000 0.500000
vt 0.500000 1.000000
vt 0.468750 0.500000
vt 0.468750 1.000000
vt 0.437500 0.500000
vt 0.437500 1.000000
vt 0.406250 0.500000
vt 0.406250 1.000000
vt 0.375000 0.500000
vt 0.375000 1.000000
vt 0.343750 0.500000
vt 0.343750 1.000000
vt 0.312500 0.500000
vt 0.312500 1.000000
vt 0.281250 0.500000
vt 0.281250 1.000000
vt 0.250000 0.500000
vt 0.250000 1.000000
vt 0.218750 0.500000
vt 0.218750 1.000000
vt 0.187500 0.500000
vt 0.187500 1.000000
vt 0.156250 0.500000
vt 0.156250 1.000000
vt 0.125000 0.500000
vt 0.125000 1.000000
vt 0.093750 0.500000
vt 0.093750 1.000000
vt 0.062500 0.500000
vt 0.062500 1.000000
vt 0.296822 0.485388
vt 0.341844 0.471731
vt 0.383337 0.449553
vt 0.419706 0.419706
vt 0.449553 0.383337
vt 0.471731 0.341844
vt 0.485388 0.296822
vt 0.490000 0.250000
vt 0.485388 0.203178
vt 0.471731 0.158156
vt 0.449553 0.116663
vt 0.419706 0.080294
vt 0.383337 0.050447
vt 0.341844 0.028269
vt 0.296822 0.014612
vt 0.250000 0.010000
vt 0.203178 0.014612
vt 0.158156 0.028269
vt 0.116663 0.050447
vt 0.080294 0.080294
vt 0.050447 0.116663
vt 0.028269 0.158156
vt 0.014612 0.203178
vt 0.010000 0.250000
vt 0.014612 0.296822
vt 0.028269 0.341844
vt 0.050447 0.383337
vt 0.080294 0.419706
vt 0.116663 0.449553
vt 0.158156 0.471731
vt 0.203178 0.485388
vt 0.250000 0.490000
vt 0.031250 0.500000
vt 0.031250 1.000000
vt 0.000000 0.500000
vt 0.000000 1.000000
vt 0.750000 0.490000
vt 0.703178 0.485388
vt 0.658156 0.471731
vt 0.616663 0.449553
vt 0.580294 0.419706
vt 0.550447 0.383337
vt 0.528269 0.341844
vt 0.514612 0.296822
vt 0.510000 0.250000
vt 0.514612 0.203178
vt 0.528269 0.158156
vt 0.550447 0.116663
vt 0.580294 0.080294
vt 0.616663 0.050447
vt 0.658156 0.028269
vt 0.703178 0.014612
vt 0.750000 0.010000
vt 0.796822 0.014612
vt 0.841844 0.028269
vt 0.883337 0.050447
vt 0.919706 0.080294
vt 0.949553 0.116663
vt 0.971731 0.158156
vt 0.985388 0.203178
vt 0.990000 0.250000
vt 0.985388 0.296822
vt 0.971731 0.341844
vt 0.949553 0.383337
vt 0.919706 0.419706
vt 0.883337 0.449553
vt 0.841844 0.471731
vt 0.796822 0.485388
vn -0.0980 0.0000 0.9952
vn -0.2903 0.0000 0.9569
vn -0.4714 0.0000 0.8819
vn -0.6344 0.0000 0.7730
vn -0.7730 0.0000 0.6344
vn -0.8819 0.0000 0.4714
vn -0.9569 0.0000 0.2903
vn -0.9952 0.0000 0.0980
vn -0.9952 0.0000 -0.0980
vn -0.9569 0.0000 -0.2903
vn -0.8819 0.0000 -0.4714
vn -0.7730 0.0000 -0.6344
vn -0.6344 0.0000 -0.7730
vn -0.4714 0.0000 -0.8819
vn -0.2903 0.0000 -0.9569
vn -0.0980 0.0000 -0.9952
vn 0.0980 0.0000 -0.9952
vn 0.2903 0.0000 -0.9569
vn 0.4714 0.0000 -0.8819
vn 0.6344 0.0000 -0.7730
vn 0.7730 0.0000 -0.6344
vn 0.8819 0.0000 -0.4714
vn 0.9569 0.0000 -0.2903
vn 0.9952 0.0000 -0.0980
vn 0.9952 0.0000 0.0980
vn 0.9569 0.0000 0.2903
vn 0.8819 0.0000 0.4714
vn 0.7730 0.0000 0.6344
vn 0.6344 0.0000 0.7730
vn 0.4714 0.0000 0.8819
vn 0.0000 -1.0000 -0.0000
vn 0.2903 0.0000 0.9569
vn 0.0980 0.0000 0.9952
vn 0.0000 1.0000 0.0000
usemtl None
s off
f 138/270/74 140/271/74 141/272/74 139/273/74
f 140/271/75 142/274/75 143/275/75 141/272/75
f 142/274/76 144/276/76 145/277/76 143/275/76
f 144/276/77 146/278/77 147/279/77 145/277/77
f 146/278/78 148/280/78 149/281/78 147/279/78
f 148/280/79 150/282/79 151/283/79 149/281/79
f 150/282/80 152/284/80 153/285/80 151/283/80
f 152/284/81 154/286/81 155/287/81 153/285/81
f 154/286/82 156/288/82 157/289/82 155/287/82
f 156/288/83 158/290/83 159/291/83 157/289/83
f 158/290/84 160/292/84 161/293/84 159/291/84
f 160/292/85 162/294/85 163/295/85 161/293/85
f 162/294/86 164/296/86 165/297/86 163/295/86
f 164/296/87 166/298/87 167/299/87 165/297/87
f 166/298/88 168/300/88 169/301/88 167/299/88
f 168/300/89 170/302/89 171/303/89 169/301/89
f 170/302/90 172/304/90 173/305/90 171/303/90
f 172/304/91 174/306/91 175/307/91 173/305/91
f 174/306/92 176/308/92 177/309/92 175/307/92
f 176/308/93 178/310/93 179/311/93 177/309/93
f 178/310/94 180/312/94 181/313/94 179/311/94
f 180/312/95 182/314/95 183/315/95 181/313/95
f 182/314/96 184/316/96 185/317/96 183/315/96
f 184/316/97 186/318/97 187/319/97 185/317/97
f 186/318/98 188/320/98 189/321/98 187/319/98
f 188/320/99 190/322/99 191/323/99 189/321/99
f 190/322/100 192/324/100 193/325/100 191/323/100
f 192/324/101 194/326/101 195/327/101 193/325/101
f 194/326/102 196/328/102 197/329/102 195/327/102
f 196/328/103 198/330/103 199/331/103 197/329/103
f 141/332/104 143/333/104 145/334/104 147/335/104 149/336/104 151/337/104 153/338/104 155/339/104 157/340/104 159/341/104 161/342/104 163/343/104 165/344/104 167/345/104 169/346/104 171/347/104 173/348/104 175/349/104 177/350/104 179/351/104 181/352/104 183/353/104 185/354/104 187/355/104 189/356/104 191/357/104 193/358/104 195/359/104 197/360/104 199/361/104 201/362/104 139/363/104
f 198/330/105 200/364/105 201/365/105 199/331/105
f 200/364/106 138/366/106 139/367/106 201/365/106
f 138/368/107 200/369/107 198/370/107 196/371/107 194/372/107 192/373/107 190/374/107 188/375/107 186/376/107 184/377/107 182/378/107 180/379/107 178/380/107 176/381/107 174/382/107 172/383/107 170/384/107 168/385/107 166/386/107 164/387/107 162/388/107 160/389/107 158/390/107 156/391/107 154/392/107 152/393/107 150/394/107 148/395/107 146/396/107 144/397/107 142/398/107 140/399/107
