# Blender 5.2.0 LTS
# www.blender.org
mtllib grass.mtl
o Cube
v -1.000000 -1.000000 1.000000
v -1.000000 1.000000 1.000000
v -1.000000 -1.000000 -1.000000
v -1.000000 1.000000 -1.000000
v 1.000000 -1.000000 1.000000
v 1.000000 1.000000 1.000000
v 1.000000 -1.000000 -1.000000
v 1.000000 1.000000 -1.000000
v -1.000000 -1.000000 1.000000
v -1.000000 1.000000 1.000000
v -1.000000 -1.000000 -1.000000
v -1.000000 1.000000 -1.000000
v 1.000000 -1.000000 1.000000
v 1.000000 1.000000 1.000000
v 1.000000 -1.000000 -1.000000
v 1.000000 1.000000 -1.000000
v -1.005774 -1.005774 1.005774
v -1.005774 1.005774 1.005774
v -1.005774 -1.005774 -1.005774
v -1.005774 1.005774 -1.005774
v 1.005774 -1.005774 1.005774
v 1.005774 1.005774 1.005774
v 1.005774 -1.005774 -1.005774
v 1.005774 1.005774 -1.005774
v -0.994227 -0.994227 0.994227
v -0.994227 0.994227 0.994227
v -0.994227 -0.994227 -0.994227
v -0.994227 0.994227 -0.994227
v 0.994227 -0.994227 0.994227
v 0.994227 0.994227 0.994227
v 0.994227 -0.994227 -0.994227
v 0.994227 0.994227 -0.994227
vn 1.0000 -0.0000 -0.0000
vn -0.0000 -0.0000 1.0000
vn -1.0000 -0.0000 -0.0000
vn -0.0000 -0.0000 -1.0000
vn -0.0000 1.0000 -0.0000
vn -0.0000 -1.0000 -0.0000
vt 0.375000 0.000000
vt 0.375000 0.250000
vt 0.625000 0.250000
vt 0.625000 0.000000
vt 0.375000 0.500000
vt 0.625000 0.500000
vt 0.375000 0.750000
vt 0.625000 0.750000
vt 0.375000 1.000000
vt 0.625000 1.000000
vt 0.125000 0.500000
vt 0.125000 0.750000
vt 0.875000 0.750000
vt 0.875000 0.500000
s 0
f 1/1/1 3/2/1 4/3/1 2/4/1
f 3/2/2 7/5/2 8/6/2 4/3/2
f 7/5/3 5/7/3 6/8/3 8/6/3
f 5/7/4 1/9/4 2/10/4 6/8/4
f 3/11/5 1/12/5 5/7/5 7/5/5
f 8/6/6 6/8/6 2/13/6 4/14/6
f 9/1/3 10/4/3 12/3/3 11/2/3
f 11/2/4 12/3/4 16/6/4 15/5/4
f 15/5/1 16/6/1 14/8/1 13/7/1
f 13/7/2 14/8/2 10/10/2 9/9/2
f 11/11/6 15/5/6 13/7/6 9/12/6
f 16/6/5 12/14/5 10/13/5 14/8/5
f 17/1/3 18/4/3 20/3/3 19/2/3
f 19/2/4 20/3/4 24/6/4 23/5/4
f 23/5/1 24/6/1 22/8/1 21/7/1
f 21/7/2 22/8/2 18/10/2 17/9/2
f 19/11/6 23/5/6 21/7/6 17/12/6
f 24/6/5 20/14/5 18/13/5 22/8/5
f 25/1/1 27/2/1 28/3/1 26/4/1
f 27/2/2 31/5/2 32/6/2 28/3/2
f 31/5/3 29/7/3 30/8/3 32/6/3
f 29/7/4 25/9/4 26/10/4 30/8/4
f 27/11/5 25/12/5 29/7/5 31/5/5
f 32/6/6 30/8/6 26/13/6 28/14/6
