# Blender 5.2.0 LTS
# www.blender.org
mtllib lake.mtl
o Circle
v 0.035614 0.000000 -0.499966
v -0.094871 0.000000 -0.468894
v -0.172183 0.000000 -0.407083
v -0.270170 0.000000 -0.397509
v -0.343862 0.000000 -0.338054
v -0.429690 0.000000 -0.263068
v -0.460448 0.000000 -0.175339
v -0.502301 0.000000 -0.090730
v -0.511645 0.000000 0.002539
v -0.476950 0.000000 0.093269
v -0.434433 0.000000 0.185116
v -0.409390 0.000000 0.264871
v -0.348913 0.000000 0.337318
v -0.270170 0.000000 0.397509
v -0.182466 0.000000 0.471856
v -0.091241 0.000000 0.499062
v 0.000000 0.000000 0.478080
v 0.094871 0.000000 0.468894
v 0.186097 0.000000 0.441688
v 0.237087 0.000000 0.378195
v 0.310778 0.000000 0.318739
v 0.371255 0.000000 0.246293
v 0.416193 0.000000 0.163639
v 0.476950 0.000000 0.093269
v 0.486294 0.000000 0.000000
v 0.476950 0.000000 -0.093269
v 0.469326 0.000000 -0.186842
v 0.404339 0.000000 -0.265607
v 0.343862 0.000000 -0.338054
v 0.306456 0.000000 -0.406348
v 0.221711 0.000000 -0.463574
v 0.130485 0.000000 -0.490779
v -0.094871 0.000000 -0.468894
v 0.035614 0.000000 -0.499966
v -0.172183 0.000000 -0.407083
v -0.270170 0.000000 -0.397509
v -0.343862 0.000000 -0.338054
v -0.429690 0.000000 -0.263068
v -0.460448 0.000000 -0.175339
v -0.502301 0.000000 -0.090730
v -0.511645 0.000000 0.002539
v -0.476950 0.000000 0.093269
v -0.434433 0.000000 0.185116
v -0.409390 0.000000 0.264871
v -0.348913 0.000000 0.337318
v -0.270170 0.000000 0.397509
v -0.182466 0.000000 0.471856
v -0.091241 0.000000 0.499062
v 0.000000 0.000000 0.478080
v 0.094871 0.000000 0.468894
v 0.186097 0.000000 0.441688
v 0.237087 0.000000 0.378195
v 0.310778 0.000000 0.318739
v 0.371255 0.000000 0.246293
v 0.416193 0.000000 0.163639
v 0.476950 0.000000 0.093269
v 0.486294 0.000000 0.000000
v 0.476950 0.000000 -0.093269
v 0.469326 0.000000 -0.186842
v 0.404339 0.000000 -0.265607
v 0.343862 0.000000 -0.338054
v 0.306456 0.000000 -0.406348
v 0.221711 0.000000 -0.463574
v 0.130485 0.000000 -0.490779
v -0.092810 0.800000 -0.467920
v 0.037675 0.800000 -0.498992
v -0.170122 0.800000 -0.406110
v -0.268110 0.800000 -0.396536
v -0.341801 0.800000 -0.337080
v -0.427629 0.800000 -0.262095
v -0.458387 0.800000 -0.174366
v -0.500240 0.800000 -0.089756
v -0.509584 0.800000 0.003512
v -0.474889 0.800000 0.094242
v -0.432372 0.800000 0.186090
v -0.407329 0.800000 0.265845
v -0.346852 0.800000 0.338291
v -0.268110 0.800000 0.398482
v -0.180405 0.800000 0.472830
v -0.089180 0.800000 0.500035
v 0.002061 0.800000 0.479053
v 0.096932 0.800000 0.469867
v 0.188157 0.800000 0.442662
v 0.239148 0.800000 0.379168
v 0.312839 0.800000 0.319713
v 0.373316 0.800000 0.247266
v 0.418254 0.800000 0.164612
v 0.479011 0.800000 0.094242
v 0.488355 0.800000 0.000973
v 0.479011 0.800000 -0.092295
v 0.471387 0.800000 -0.185869
v 0.406399 0.800000 -0.264634
v 0.345923 0.800000 -0.337080
v 0.308516 0.800000 -0.405375
v 0.223772 0.800000 -0.462601
v 0.132546 0.800000 -0.489806
v -0.027568 0.800000 -0.483456
v -0.131466 0.800000 -0.437015
v -0.219116 0.800000 -0.401323
v -0.304955 0.800000 -0.366808
v -0.384715 0.800000 -0.299587
v -0.443008 0.800000 -0.218230
v -0.479314 0.800000 -0.132061
v -0.504912 0.800000 -0.043122
v -0.492237 0.800000 0.048877
v -0.453631 0.800000 0.140166
v -0.419851 0.800000 0.225967
v -0.377090 0.800000 0.302068
v -0.307481 0.800000 0.368387
v -0.224257 0.800000 0.435656
v -0.134792 0.800000 0.486433
v -0.043559 0.800000 0.489544
v 0.049496 0.800000 0.474460
v 0.142545 0.800000 0.456265
v 0.213653 0.800000 0.410915
v 0.275993 0.800000 0.349440
v 0.343077 0.800000 0.283489
v 0.395785 0.800000 0.205939
v 0.448632 0.800000 0.129427
v 0.483683 0.800000 0.047608
v 0.483683 0.800000 -0.045661
v 0.475199 0.800000 -0.139082
v 0.438893 0.800000 -0.225251
v 0.376161 0.800000 -0.300857
v 0.327219 0.800000 -0.371227
v 0.266144 0.800000 -0.433988
v 0.178159 0.800000 -0.476203
v 0.085111 0.800000 -0.494399
v 0.005054 0.800000 -0.491224
v -0.112138 0.800000 -0.452468
v -0.194619 0.800000 -0.403716
v -0.286532 0.800000 -0.381672
v -0.363258 0.800000 -0.318334
v -0.435319 0.800000 -0.240162
v -0.468851 0.800000 -0.153214
v -0.502576 0.800000 -0.066439
v -0.500910 0.800000 0.026195
v -0.464260 0.800000 0.117204
v -0.426111 0.800000 0.206028
v -0.392210 0.800000 0.283956
v -0.327166 0.800000 0.353339
v -0.246183 0.800000 0.417069
v -0.157599 0.800000 0.479631
v -0.066370 0.800000 0.494790
v 0.025779 0.800000 0.476757
v 0.119738 0.800000 0.463066
v 0.200905 0.800000 0.426788
v 0.257570 0.800000 0.364304
v 0.327958 0.800000 0.301601
v 0.384550 0.800000 0.226603
v 0.433443 0.800000 0.147020
v 0.481347 0.800000 0.070925
v 0.486019 0.800000 -0.022344
v 0.477105 0.800000 -0.115689
v 0.455140 0.800000 -0.205560
v 0.391280 0.800000 -0.282745
v 0.336571 0.800000 -0.354154
v 0.287330 0.800000 -0.419681
v 0.200965 0.800000 -0.469402
v 0.108828 0.800000 -0.492103
v -0.060189 0.800000 -0.475688
v -0.150794 0.800000 -0.421562
v -0.243613 0.800000 -0.398929
v -0.323378 0.800000 -0.351944
v -0.406172 0.800000 -0.280841
v -0.450698 0.800000 -0.196298
v -0.489777 0.800000 -0.110909
v -0.507248 0.800000 -0.019805
v -0.483563 0.800000 0.071560
v -0.443001 0.800000 0.163128
v -0.413590 0.800000 0.245906
v -0.361971 0.800000 0.320179
v -0.287795 0.800000 0.383435
v -0.202331 0.800000 0.454243
v -0.111986 0.800000 0.493234
v -0.020749 0.800000 0.484299
v 0.073214 0.800000 0.472164
v 0.165351 0.800000 0.449463
v 0.226400 0.800000 0.395041
v 0.294416 0.800000 0.334577
v 0.358197 0.800000 0.265378
v 0.407020 0.800000 0.185276
v 0.463822 0.800000 0.111835
v 0.486019 0.800000 0.024291
v 0.481347 0.800000 -0.068978
v 0.473293 0.800000 -0.162476
v 0.422646 0.800000 -0.244942
v 0.361042 0.800000 -0.318968
v 0.317868 0.800000 -0.388301
v 0.244958 0.800000 -0.448294
v 0.155353 0.800000 -0.483005
v 0.061393 0.800000 -0.496696
v -0.133171 0.043368 -0.040473
v 0.021364 0.800000 -0.495108
v -0.102474 0.800000 -0.460194
v -0.182371 0.800000 -0.404913
v -0.277321 0.800000 -0.389104
v -0.352529 0.800000 -0.327707
v -0.431474 0.800000 -0.251129
v -0.463619 0.800000 -0.163790
v -0.501408 0.800000 -0.078098
v -0.505247 0.800000 0.014854
v -0.469575 0.800000 0.105723
v -0.429242 0.800000 0.196059
v -0.399769 0.800000 0.274900
v -0.337009 0.800000 0.345815
v -0.257147 0.800000 0.407776
v -0.169002 0.800000 0.476230
v -0.077775 0.800000 0.497413
v 0.013920 0.800000 0.477905
v 0.108335 0.800000 0.466467
v 0.194531 0.800000 0.434725
v 0.248359 0.800000 0.371736
v 0.320399 0.800000 0.310657
v 0.378933 0.800000 0.236934
v 0.425849 0.800000 0.155816
v 0.480179 0.800000 0.082584
v 0.487187 0.800000 -0.010685
v 0.478058 0.800000 -0.103992
v 0.463264 0.800000 -0.195715
v 0.398840 0.800000 -0.273689
v 0.341247 0.800000 -0.345617
v 0.297923 0.800000 -0.412528
v 0.212368 0.800000 -0.466001
v 0.120687 0.800000 -0.490954
v -0.043878 0.800000 -0.479572
v -0.141130 0.800000 -0.429289
v -0.231364 0.800000 -0.400126
v -0.314167 0.800000 -0.359376
v -0.395443 0.800000 -0.290214
v -0.446853 0.800000 -0.207264
v -0.484545 0.800000 -0.121485
v -0.506080 0.800000 -0.031463
v -0.487900 0.800000 0.060219
v -0.448316 0.800000 0.151647
v -0.416720 0.800000 0.235936
v -0.369531 0.800000 0.311124
v -0.297638 0.800000 0.375911
v -0.213294 0.800000 0.444950
v -0.123389 0.800000 0.489833
v -0.032154 0.800000 0.486922
v 0.061355 0.800000 0.473312
v 0.153948 0.800000 0.452864
v 0.220026 0.800000 0.402978
v 0.285205 0.800000 0.342008
v 0.350637 0.800000 0.274434
v 0.401402 0.800000 0.195608
v 0.456227 0.800000 0.120631
v 0.484851 0.800000 0.035949
v 0.482515 0.800000 -0.057320
v 0.474246 0.800000 -0.150779
v 0.430770 0.800000 -0.235097
v 0.368601 0.800000 -0.309913
v 0.322544 0.800000 -0.379764
v 0.255551 0.800000 -0.441141
v 0.166756 0.800000 -0.479604
v 0.073252 0.800000 -0.495547
v -0.011257 0.800000 -0.487340
v -0.121802 0.800000 -0.444741
v -0.206868 0.800000 -0.402519
v -0.295744 0.800000 -0.374240
v -0.373986 0.800000 -0.308961
v -0.439163 0.800000 -0.229196
v -0.474082 0.800000 -0.142637
v -0.503744 0.800000 -0.054781
v -0.496574 0.800000 0.037536
v -0.458945 0.800000 0.128685
v -0.422981 0.800000 0.215998
v -0.384650 0.800000 0.293012
v -0.317324 0.800000 0.360863
v -0.235220 0.800000 0.426363
v -0.146196 0.800000 0.483032
v -0.054965 0.800000 0.492167
v 0.037638 0.800000 0.475609
v 0.131142 0.800000 0.459665
v 0.207279 0.800000 0.418852
v 0.266782 0.800000 0.356872
v 0.335518 0.800000 0.292545
v 0.390168 0.800000 0.216271
v 0.441038 0.800000 0.138224
v 0.482515 0.800000 0.059266
v 0.484851 0.800000 -0.034002
v 0.476152 0.800000 -0.127385
v 0.447017 0.800000 -0.215406
v 0.383721 0.800000 -0.291801
v 0.331895 0.800000 -0.362691
v 0.276737 0.800000 -0.426834
v 0.189562 0.800000 -0.472803
v 0.096970 0.800000 -0.493251
v -0.076500 0.800000 -0.471804
v -0.160458 0.800000 -0.413836
v -0.255861 0.800000 -0.397732
v -0.332590 0.800000 -0.344512
v -0.416901 0.800000 -0.271468
v -0.454542 0.800000 -0.185332
v -0.495009 0.800000 -0.100333
v -0.508416 0.800000 -0.008146
v -0.479226 0.800000 0.082901
v -0.437687 0.800000 0.174609
v -0.410459 0.800000 0.255875
v -0.354412 0.800000 0.329235
v -0.277952 0.800000 0.390959
v -0.191368 0.800000 0.463536
v -0.100583 0.800000 0.496635
v -0.009344 0.800000 0.481676
v 0.085073 0.800000 0.471016
v 0.176754 0.800000 0.446062
v 0.232774 0.800000 0.387105
v 0.303627 0.800000 0.327145
v 0.365756 0.800000 0.256322
v 0.412637 0.800000 0.174944
v 0.471416 0.800000 0.103039
v 0.487187 0.800000 0.012632
v 0.480179 0.800000 -0.080637
v 0.472340 0.800000 -0.174172
v 0.414523 0.800000 -0.254788
v 0.353482 0.800000 -0.328024
v 0.313192 0.800000 -0.396838
v 0.234365 0.800000 -0.455447
v 0.143949 0.800000 -0.486405
v 0.049534 0.800000 -0.497844
vn -0.0000 -1.0000 -0.0000
vn -0.6073 0.0006 0.7945
vn -0.0000 1.0000 -0.0000
vn 0.7713 -0.0012 -0.6364
vn -0.6466 0.0007 0.7628
vn -0.2316 0.0018 -0.9728
vn 0.7677 -0.0012 -0.6408
vn -0.2858 -0.0004 0.9583
vn -0.6245 0.0026 -0.7811
vn 0.8771 -0.0017 -0.4804
vn 0.2241 -0.0018 0.9746
vn -0.0972 0.0015 -0.9953
vn 0.5596 -0.0004 -0.8287
vn 0.0964 -0.0015 0.9953
vn -0.6279 0.0026 -0.7783
vn 0.2858 0.0004 -0.9583
vn 0.2858 -0.0019 0.9583
vn -0.6579 0.0026 -0.7531
vn 0.0964 0.0010 -0.9953
vn 0.7797 -0.0028 0.6262
vn -0.9437 0.0028 -0.3309
vn 0.6279 -0.0026 0.7783
vn -0.8963 0.0028 -0.4434
vn 0.7677 -0.0028 0.6408
vn -0.9950 0.0027 -0.0997
vn 0.8785 -0.0028 0.4777
vn -0.9340 0.0020 0.3572
vn 0.7569 -0.0027 0.6535
vn -0.9075 0.0018 0.4201
vn 0.9950 -0.0027 0.0997
vn -0.9541 0.0021 0.2996
vn 0.9950 -0.0024 -0.0997
vn -0.7677 0.0012 0.6408
vn 0.9967 -0.0025 -0.0812
vt 0.000000 0.000000
s 0
usemtl Lake
f 2/1/1 1/1/1 32/1/1 31/1/1 30/1/1 29/1/1 28/1/1 27/1/1 26/1/1 25/1/1 24/1/1 23/1/1 22/1/1 21/1/1 20/1/1 19/1/1 18/1/1 17/1/1 16/1/1 15/1/1 14/1/1 13/1/1 12/1/1 11/1/1 10/1/1 9/1/1 8/1/1 7/1/1 6/1/1 5/1/1 4/1/1 3/1/1
f 46/1/2 78/1/2 302/1/2 173/1/2 238/1/2 109/1/2 270/1/2 141/1/2 206/1/2 77/1/2 45/1/2
f 19/1/3 51/1/3 50/1/3 18/1/3
f 6/1/3 38/1/3 37/1/3 5/1/3
f 1/1/3 34/1/3 64/1/3 32/1/3
f 20/1/3 52/1/3 51/1/3 19/1/3
f 7/1/3 39/1/3 38/1/3 6/1/3
f 21/1/3 53/1/3 52/1/3 20/1/3
f 8/1/3 40/1/3 39/1/3 7/1/3
f 22/1/3 54/1/3 53/1/3 21/1/3
f 9/1/1 41/1/1 40/1/1 8/1/1
f 23/1/3 55/1/3 54/1/3 22/1/3
f 10/1/3 42/1/3 41/1/3 9/1/3
f 24/1/3 56/1/3 55/1/3 23/1/3
f 11/1/3 43/1/3 42/1/3 10/1/3
f 25/1/3 57/1/3 56/1/3 24/1/3
f 12/1/3 44/1/3 43/1/3 11/1/3
f 26/1/3 58/1/3 57/1/3 25/1/3
f 13/1/3 45/1/3 44/1/3 12/1/3
f 27/1/3 59/1/3 58/1/3 26/1/3
f 14/1/3 46/1/3 45/1/3 13/1/3
f 28/1/3 60/1/3 59/1/3 27/1/3
f 15/1/3 47/1/3 46/1/3 14/1/3
f 2/1/3 33/1/3 34/1/3 1/1/3
f 29/1/3 61/1/3 60/1/3 28/1/3
f 16/1/3 48/1/3 47/1/3 15/1/3
f 3/1/3 35/1/3 33/1/3 2/1/3
f 30/1/3 62/1/3 61/1/3 29/1/3
f 17/1/3 49/1/3 48/1/3 16/1/3
f 4/1/3 36/1/3 35/1/3 3/1/3
f 31/1/3 63/1/3 62/1/3 30/1/3
f 18/1/3 50/1/3 49/1/3 17/1/3
f 5/1/3 37/1/3 36/1/3 4/1/3
f 32/1/3 64/1/3 63/1/3 31/1/3
f 65/1/3 195/1/3 130/1/3 259/1/3 98/1/3 227/1/3 162/1/3 291/1/3 67/1/3 196/1/3 131/1/3 260/1/3 99/1/3 228/1/3 163/1/3 292/1/3 68/1/3 197/1/3 132/1/3 261/1/3 100/1/3 229/1/3 164/1/3 293/1/3 69/1/3 198/1/3 133/1/3 262/1/3 101/1/3 230/1/3 165/1/3 294/1/3 70/1/3 199/1/3 134/1/3 263/1/3 102/1/3 231/1/3 166/1/3 295/1/3 71/1/3 200/1/3 135/1/3 264/1/3 103/1/3 232/1/3 167/1/3 296/1/3 72/1/3 201/1/3 136/1/3 265/1/3 104/1/3 233/1/3 168/1/3 297/1/3 73/1/3 202/1/3 137/1/3 266/1/3 105/1/3 234/1/3 169/1/3 298/1/3 74/1/3 203/1/3 138/1/3 267/1/3 106/1/3 235/1/3 170/1/3 299/1/3 75/1/3 204/1/3 139/1/3 268/1/3 107/1/3 236/1/3 171/1/3 300/1/3 76/1/3 205/1/3 140/1/3 269/1/3 108/1/3 237/1/3 172/1/3 301/1/3 77/1/3 206/1/3 141/1/3 270/1/3 109/1/3 238/1/3 173/1/3 302/1/3 78/1/3 207/1/3 142/1/3 271/1/3 110/1/3 239/1/3 174/1/3 303/1/3 79/1/3 208/1/3 143/1/3 272/1/3 111/1/3 240/1/3 175/1/3 304/1/3 80/1/3 209/1/3 144/1/3 273/1/3 112/1/3 241/1/3 176/1/3 305/1/3 81/1/3 210/1/3 145/1/3 274/1/3 113/1/3 242/1/3 177/1/3 306/1/3 82/1/3 211/1/3 146/1/3 275/1/3 114/1/3 243/1/3 178/1/3 307/1/3 83/1/3 212/1/3 147/1/3 276/1/3 115/1/3 244/1/3 179/1/3 308/1/3 84/1/3 213/1/3 148/1/3 277/1/3 116/1/3 245/1/3 180/1/3 309/1/3 85/1/3 214/1/3 149/1/3 278/1/3 117/1/3 246/1/3 181/1/3 310/1/3 86/1/3 215/1/3 150/1/3 279/1/3 118/1/3 247/1/3 182/1/3 311/1/3 87/1/3 216/1/3 151/1/3 280/1/3 119/1/3 248/1/3 183/1/3 312/1/3 88/1/3 217/1/3 152/1/3 281/1/3 120/1/3 249/1/3 184/1/3 313/1/3 89/1/3 218/1/3 153/1/3 282/1/3 121/1/3 250/1/3 185/1/3 314/1/3 90/1/3 219/1/3 154/1/3 283/1/3 122/1/3 251/1/3 186/1/3 315/1/3 91/1/3 220/1/3 155/1/3 284/1/3 123/1/3 252/1/3 187/1/3 316/1/3 92/1/3 221/1/3 156/1/3 285/1/3 124/1/3 253/1/3 188/1/3 317/1/3 93/1/3 222/1/3 157/1/3 286/1/3 125/1/3 254/1/3 189/1/3 318/1/3 94/1/3 223/1/3 158/1/3 287/1/3 126/1/3 255/1/3 190/1/3 319/1/3 95/1/3 224/1/3 159/1/3 288/1/3 127/1/3 256/1/3 191/1/3 320/1/3 96/1/3 225/1/3 160/1/3 289/1/3 128/1/3 257/1/3 192/1/3 321/1/3 66/1/3 194/1/3 129/1/3 258/1/3 97/1/3 226/1/3 161/1/3 290/1/3
f 60/1/4 92/1/4 316/1/4 187/1/4 252/1/4 123/1/4 284/1/4 155/1/4 220/1/4 91/1/4 59/1/4
f 47/1/5 79/1/5 303/1/5 174/1/5 239/1/5 110/1/5 271/1/5 142/1/5 207/1/5 78/1/5 46/1/5
f 33/1/6 65/1/6 290/1/6 161/1/6 226/1/6 97/1/6 258/1/6 129/1/6 194/1/6 66/1/6 34/1/6
f 61/1/7 93/1/7 317/1/7 188/1/7 253/1/7 124/1/7 285/1/7 156/1/7 221/1/7 92/1/7 60/1/7
f 48/1/8 80/1/8 304/1/8 175/1/8 240/1/8 111/1/8 272/1/8 143/1/8 208/1/8 79/1/8 47/1/8
f 35/1/9 67/1/9 291/1/9 162/1/9 227/1/9 98/1/9 259/1/9 130/1/9 195/1/9 65/1/9 33/1/9
f 62/1/10 94/1/10 318/1/10 189/1/10 254/1/10 125/1/10 286/1/10 157/1/10 222/1/10 93/1/10 61/1/10
f 49/1/11 81/1/11 305/1/11 176/1/11 241/1/11 112/1/11 273/1/11 144/1/11 209/1/11 80/1/11 48/1/11
f 36/1/12 68/1/12 292/1/12 163/1/12 228/1/12 99/1/12 260/1/12 131/1/12 196/1/12 67/1/12 35/1/12
f 63/1/13 95/1/13 319/1/13 190/1/13 255/1/13 126/1/13 287/1/13 158/1/13 223/1/13 94/1/13 62/1/13
f 50/1/14 82/1/14 306/1/14 177/1/14 242/1/14 113/1/14 274/1/14 145/1/14 210/1/14 81/1/14 49/1/14
f 37/1/15 69/1/15 293/1/15 164/1/15 229/1/15 100/1/15 261/1/15 132/1/15 197/1/15 68/1/15 36/1/15
f 64/1/16 96/1/16 320/1/16 191/1/16 256/1/16 127/1/16 288/1/16 159/1/16 224/1/16 95/1/16 63/1/16
f 51/1/17 83/1/17 307/1/17 178/1/17 243/1/17 114/1/17 275/1/17 146/1/17 211/1/17 82/1/17 50/1/17
f 38/1/18 70/1/18 294/1/18 165/1/18 230/1/18 101/1/18 262/1/18 133/1/18 198/1/18 69/1/18 37/1/18
f 34/1/19 66/1/19 321/1/19 192/1/19 257/1/19 128/1/19 289/1/19 160/1/19 225/1/19 96/1/19 64/1/19
f 52/1/20 84/1/20 308/1/20 179/1/20 244/1/20 115/1/20 276/1/20 147/1/20 212/1/20 83/1/20 51/1/20
f 39/1/21 71/1/21 295/1/21 166/1/21 231/1/21 102/1/21 263/1/21 134/1/21 199/1/21 70/1/21 38/1/21
f 53/1/22 85/1/22 309/1/22 180/1/22 245/1/22 116/1/22 277/1/22 148/1/22 213/1/22 84/1/22 52/1/22
f 40/1/23 72/1/23 296/1/23 167/1/23 232/1/23 103/1/23 264/1/23 135/1/23 200/1/23 71/1/23 39/1/23
f 54/1/24 86/1/24 310/1/24 181/1/24 246/1/24 117/1/24 278/1/24 149/1/24 214/1/24 85/1/24 53/1/24
f 41/1/25 73/1/25 297/1/25 168/1/25 233/1/25 104/1/25 265/1/25 136/1/25 201/1/25 72/1/25 40/1/25
f 55/1/26 87/1/26 311/1/26 182/1/26 247/1/26 118/1/26 279/1/26 150/1/26 215/1/26 86/1/26 54/1/26
f 42/1/27 74/1/27 298/1/27 169/1/27 234/1/27 105/1/27 266/1/27 137/1/27 202/1/27 73/1/27 41/1/27
f 56/1/28 88/1/28 312/1/28 183/1/28 248/1/28 119/1/28 280/1/28 151/1/28 216/1/28 87/1/28 55/1/28
f 43/1/29 75/1/29 299/1/29 170/1/29 235/1/29 106/1/29 267/1/29 138/1/29 203/1/29 74/1/29 42/1/29
f 57/1/30 89/1/30 313/1/30 184/1/30 249/1/30 120/1/30 281/1/30 152/1/30 217/1/30 88/1/30 56/1/30
f 44/1/31 76/1/31 300/1/31 171/1/31 236/1/31 107/1/31 268/1/31 139/1/31 204/1/31 75/1/31 43/1/31
f 58/1/32 90/1/32 314/1/32 185/1/32 250/1/32 121/1/32 282/1/32 153/1/32 218/1/32 89/1/32 57/1/32
f 45/1/33 77/1/33 301/1/33 172/1/33 237/1/33 108/1/33 269/1/33 140/1/33 205/1/33 76/1/33 44/1/33
f 59/1/34 91/1/34 315/1/34 186/1/34 251/1/34 122/1/34 283/1/34 154/1/34 219/1/34 90/1/34 58/1/34
