# Blender 5.2.0 LTS
# www.blender.org
mtllib water.mtl
o Cube
v -0.500000 -0.500000 0.479322
v -0.500000 0.500000 0.479322
v -0.500000 -0.500000 -0.433220
v -0.500000 0.500000 -0.433220
v 0.500000 -0.500000 0.466038
v 0.500000 0.500000 0.466038
v 0.500000 -0.500000 -0.433016
v 0.500000 0.500000 -0.433016
v 0.000000 -0.500000 -0.439059
v 0.000000 0.500000 -0.439059
v 0.000000 -0.500000 0.451664
v 0.000000 0.500000 0.451664
v 0.250000 0.500000 -0.471856
v 0.250000 -0.500000 0.441819
v 0.250000 -0.500000 -0.471856
v 0.250000 0.500000 0.441819
v 0.375000 0.500000 -0.389940
v 0.375000 -0.500000 0.475051
v 0.375000 -0.500000 -0.389940
v 0.375000 0.500000 0.475051
v 0.125000 -0.500000 -0.502088
v 0.125000 0.500000 0.395746
v 0.125000 0.500000 -0.502088
v 0.125000 -0.500000 0.395746
v -0.250000 -0.500000 -0.465979
v -0.250000 0.500000 0.458238
v -0.250000 0.500000 -0.465979
v -0.250000 -0.500000 0.458238
v -0.125000 0.500000 -0.402645
v -0.125000 -0.500000 0.491114
v -0.125000 -0.500000 -0.402645
v -0.125000 0.500000 0.491114
v -0.375000 -0.500000 -0.491022
v -0.375000 0.500000 0.415879
v -0.375000 0.500000 -0.491022
v -0.375000 -0.500000 0.415879
v -0.437500 -0.500000 -0.458342
v -0.437500 0.500000 0.455651
v -0.437500 0.500000 -0.458342
v -0.437500 -0.500000 0.455651
v -0.312500 0.500000 -0.496208
v -0.312500 -0.500000 0.413881
v -0.312500 -0.500000 -0.496208
v -0.312500 0.500000 0.413881
v -0.187500 -0.500000 -0.425778
v -0.187500 0.500000 0.487697
v -0.187500 0.500000 -0.425778
v -0.187500 -0.500000 0.487697
v -0.062500 0.500000 -0.409982
v -0.062500 -0.500000 0.477336
v -0.062500 -0.500000 -0.409982
v -0.062500 0.500000 0.477336
v 0.062500 -0.500000 -0.475202
v 0.062500 0.500000 0.417685
v 0.062500 0.500000 -0.475202
v 0.062500 -0.500000 0.417685
v 0.187500 0.500000 -0.506270
v 0.187500 -0.500000 0.404871
v 0.187500 -0.500000 -0.506270
v 0.187500 0.500000 0.404871
v 0.312500 -0.500000 -0.415619
v 0.312500 0.500000 0.470864
v 0.312500 0.500000 -0.415619
v 0.312500 -0.500000 0.470864
v 0.437500 0.500000 -0.402656
v 0.437500 -0.500000 0.467509
v 0.437500 -0.500000 -0.402656
v 0.437500 0.500000 0.467509
v 0.468750 0.500000 -0.417561
v 0.468750 -0.500000 0.465540
v 0.468750 -0.500000 -0.417561
v 0.468750 0.500000 0.465540
v 0.406250 -0.500000 -0.392265
v 0.406250 0.500000 0.471460
v 0.406250 0.500000 -0.392265
v 0.406250 -0.500000 0.471460
v 0.343750 0.500000 -0.397131
v 0.343750 -0.500000 0.475536
v 0.343750 -0.500000 -0.397131
v 0.343750 0.500000 0.475536
v 0.281250 -0.500000 -0.442246
v 0.281250 0.500000 0.460308
v 0.281250 0.500000 -0.442246
v 0.281250 -0.500000 0.460308
v 0.218750 0.500000 -0.494951
v 0.218750 -0.500000 0.421538
v 0.218750 -0.500000 -0.494951
v 0.218750 0.500000 0.421538
v 0.156250 -0.500000 -0.507933
v 0.156250 0.500000 0.396359
v 0.156250 0.500000 -0.507933
v 0.156250 -0.500000 0.396359
v 0.093750 0.500000 -0.490222
v 0.093750 -0.500000 0.403521
v 0.093750 -0.500000 -0.490222
v 0.093750 0.500000 0.403521
v 0.031250 -0.500000 -0.457232
v 0.031250 0.500000 0.434664
v 0.031250 0.500000 -0.457232
v 0.031250 -0.500000 0.434664
v -0.031250 0.500000 -0.422323
v -0.031250 -0.500000 0.466418
v -0.031250 -0.500000 -0.422323
v -0.031250 0.500000 0.466418
v -0.093750 -0.500000 -0.402782
v -0.093750 0.500000 0.485706
v -0.093750 0.500000 -0.402782
v -0.093750 -0.500000 0.485706
v -0.156250 0.500000 -0.409984
v -0.156250 -0.500000 0.492067
v -0.156250 -0.500000 -0.409984
v -0.156250 0.500000 0.492067
v -0.218750 -0.500000 -0.445952
v -0.218750 0.500000 0.477340
v -0.218750 0.500000 -0.445952
v -0.218750 -0.500000 0.477340
v -0.281250 0.500000 -0.484479
v -0.281250 -0.500000 0.434277
v -0.281250 -0.500000 -0.484479
v -0.281250 0.500000 0.434277
v -0.343750 -0.500000 -0.497881
v -0.343750 0.500000 0.408163
v -0.343750 0.500000 -0.497881
v -0.343750 -0.500000 0.408163
v -0.406250 0.500000 -0.477073
v -0.406250 -0.500000 0.433731
v -0.406250 -0.500000 -0.477073
v -0.406250 0.500000 0.433731
v -0.468750 -0.500000 -0.441511
v -0.468750 0.500000 0.473274
v -0.468750 0.500000 -0.441511
v -0.468750 -0.500000 0.473274
vn -1.0000 -0.0000 -0.0000
vn -0.4433 -0.0000 -0.8964
vn 1.0000 -0.0000 -0.0000
vn 0.1900 -0.0000 0.9818
vn -0.0000 -1.0000 -0.0000
vn -0.0000 1.0000 -0.0000
vn 0.4779 -0.0000 0.8784
vn -0.4721 -0.0000 -0.8815
vn -0.5092 -0.0000 0.8607
vn 0.5943 -0.0000 -0.8042
vn 0.1142 -0.0000 0.9935
vn 0.2242 -0.0000 -0.9745
vn -0.3550 -0.0000 -0.9349
vn -0.0196 -0.0000 0.9998
vn 0.5094 -0.0000 -0.8605
vn -0.5216 -0.0000 0.8532
vn 0.1705 -0.0000 0.9854
vn 0.2286 -0.0000 -0.9735
vn -0.4076 -0.0000 -0.9132
vn 0.2397 -0.0000 0.9708
vn -0.4742 -0.0000 -0.8804
vn 0.5743 -0.0000 0.8187
vn -0.5466 -0.0000 0.8374
vn 0.0535 -0.0000 -0.9986
vn 0.5424 -0.0000 -0.8401
vn -0.1385 -0.0000 0.9904
vn 0.3298 -0.0000 0.9440
vn -0.2245 -0.0000 -0.9745
vn -0.4985 -0.0000 -0.8669
vn 0.4128 -0.0000 0.9108
vn -0.4706 -0.0000 0.8823
vn 0.0531 -0.0000 -0.9986
vn 0.6486 -0.0000 -0.7612
vn -0.1479 -0.0000 0.9890
vn 0.0629 -0.0000 0.9980
vn -0.3155 -0.0000 -0.9489
vn -0.0159 -0.0000 0.9999
vn -0.4305 -0.0000 -0.9026
vn -0.0742 -0.0000 -0.9972
vn 0.1254 -0.0000 0.9921
vn 0.0155 -0.0000 0.9999
vn 0.5092 -0.0000 -0.8607
vn 0.6878 -0.0000 -0.7259
vn -0.3200 -0.0000 0.9474
vn -0.5444 -0.0000 0.8388
vn 0.3406 -0.0000 -0.9402
vn -0.1839 -0.0000 -0.9830
vn -0.2628 -0.0000 0.9649
vn 0.2414 -0.0000 0.9704
vn -0.4332 -0.0000 -0.9013
vn -0.5027 -0.0000 -0.8645
vn 0.4774 -0.0000 0.8787
vn 0.4269 -0.0000 0.9043
vn -0.3673 -0.0000 -0.9301
vn -0.0044 -0.0000 -1.0000
vn 0.2587 -0.0000 0.9660
vn 0.0305 -0.0000 0.9995
vn 0.4511 -0.0000 -0.8925
vn 0.5396 -0.0000 -0.8419
vn -0.3146 -0.0000 0.9492
vn -0.6085 -0.0000 0.7936
vn 0.3514 -0.0000 -0.9362
vn -0.2144 -0.0000 -0.9768
vn -0.1800 -0.0000 0.9837
vn 0.4960 -0.0000 0.8683
vn -0.5141 -0.0000 -0.8577
vn -0.2564 -0.0000 -0.9666
vn 0.4912 -0.0000 0.8710
vt 0.375000 0.000000
vt 0.625000 0.000000
vt 0.625000 0.250000
vt 0.375000 0.250000
vt 0.375000 0.492188
vt 0.625000 0.492188
vt 0.625000 0.500000
vt 0.375000 0.500000
vt 0.625000 0.750000
vt 0.375000 0.750000
vt 0.375000 0.992188
vt 0.625000 0.992188
vt 0.625000 1.000000
vt 0.375000 1.000000
vt 0.367188 0.500000
vt 0.367188 0.750000
vt 0.867188 0.500000
vt 0.875000 0.500000
vt 0.875000 0.750000
vt 0.867188 0.750000
vt 0.742188 0.500000
vt 0.750000 0.500000
vt 0.750000 0.750000
vt 0.742188 0.750000
vt 0.242188 0.500000
vt 0.250000 0.500000
vt 0.250000 0.750000
vt 0.242188 0.750000
vt 0.375000 0.867188
vt 0.625000 0.867188
vt 0.625000 0.875000
vt 0.375000 0.875000
vt 0.375000 0.367188
vt 0.625000 0.367188
vt 0.625000 0.375000
vt 0.375000 0.375000
vt 0.375000 0.804688
vt 0.625000 0.804688
vt 0.625000 0.812500
vt 0.375000 0.812500
vt 0.679688 0.500000
vt 0.687500 0.500000
vt 0.687500 0.750000
vt 0.679688 0.750000
vt 0.304688 0.500000
vt 0.312500 0.500000
vt 0.312500 0.750000
vt 0.304688 0.750000
vt 0.375000 0.429688
vt 0.625000 0.429688
vt 0.625000 0.437500
vt 0.375000 0.437500
vt 0.648438 0.500000
vt 0.656250 0.500000
vt 0.656250 0.750000
vt 0.648438 0.750000
vt 0.375000 0.773438
vt 0.625000 0.773438
vt 0.625000 0.781250
vt 0.375000 0.781250
vt 0.335938 0.500000
vt 0.343750 0.500000
vt 0.343750 0.750000
vt 0.335938 0.750000
vt 0.375000 0.460938
vt 0.625000 0.460938
vt 0.625000 0.468750
vt 0.375000 0.468750
vt 0.375000 0.398438
vt 0.625000 0.398438
vt 0.625000 0.406250
vt 0.375000 0.406250
vt 0.273438 0.500000
vt 0.281250 0.500000
vt 0.281250 0.750000
vt 0.273438 0.750000
vt 0.375000 0.835938
vt 0.625000 0.835938
vt 0.625000 0.843750
vt 0.375000 0.843750
vt 0.710938 0.500000
vt 0.718750 0.500000
vt 0.718750 0.750000
vt 0.710938 0.750000
vt 0.375000 0.304688
vt 0.625000 0.304688
vt 0.625000 0.312500
vt 0.375000 0.312500
vt 0.179688 0.500000
vt 0.187500 0.500000
vt 0.187500 0.750000
vt 0.179688 0.750000
vt 0.804688 0.500000
vt 0.812500 0.500000
vt 0.812500 0.750000
vt 0.804688 0.750000
vt 0.375000 0.929688
vt 0.625000 0.929688
vt 0.625000 0.937500
vt 0.375000 0.937500
vt 0.375000 0.898438
vt 0.625000 0.898438
vt 0.625000 0.906250
vt 0.375000 0.906250
vt 0.773438 0.500000
vt 0.781250 0.500000
vt 0.781250 0.750000
vt 0.773438 0.750000
vt 0.375000 0.335938
vt 0.625000 0.335938
vt 0.625000 0.343750
vt 0.375000 0.343750
vt 0.210938 0.500000
vt 0.218750 0.500000
vt 0.218750 0.750000
vt 0.210938 0.750000
vt 0.148438 0.500000
vt 0.156250 0.500000
vt 0.156250 0.750000
vt 0.148438 0.750000
vt 0.375000 0.273438
vt 0.625000 0.273438
vt 0.625000 0.281250
vt 0.375000 0.281250
vt 0.835938 0.500000
vt 0.843750 0.500000
vt 0.843750 0.750000
vt 0.835938 0.750000
vt 0.375000 0.960938
vt 0.625000 0.960938
vt 0.625000 0.968750
vt 0.375000 0.968750
vt 0.375000 0.257812
vt 0.625000 0.257812
vt 0.625000 0.265625
vt 0.375000 0.265625
vt 0.132812 0.500000
vt 0.140625 0.500000
vt 0.140625 0.750000
vt 0.132812 0.750000
vt 0.851562 0.500000
vt 0.859375 0.500000
vt 0.859375 0.750000
vt 0.851562 0.750000
vt 0.375000 0.976562
vt 0.625000 0.976562
vt 0.625000 0.984375
vt 0.375000 0.984375
vt 0.375000 0.945312
vt 0.625000 0.945312
vt 0.625000 0.953125
vt 0.375000 0.953125
vt 0.820312 0.500000
vt 0.828125 0.500000
vt 0.828125 0.750000
vt 0.820312 0.750000
vt 0.164062 0.500000
vt 0.171875 0.500000
vt 0.171875 0.750000
vt 0.164062 0.750000
vt 0.375000 0.289062
vt 0.625000 0.289062
vt 0.625000 0.296875
vt 0.375000 0.296875
vt 0.195312 0.500000
vt 0.203125 0.500000
vt 0.203125 0.750000
vt 0.195312 0.750000
vt 0.375000 0.320312
vt 0.625000 0.320312
vt 0.625000 0.328125
vt 0.375000 0.328125
vt 0.375000 0.914062
vt 0.625000 0.914062
vt 0.625000 0.921875
vt 0.375000 0.921875
vt 0.789062 0.500000
vt 0.796875 0.500000
vt 0.796875 0.750000
vt 0.789062 0.750000
vt 0.757812 0.500000
vt 0.765625 0.500000
vt 0.765625 0.750000
vt 0.757812 0.750000
vt 0.375000 0.882812
vt 0.625000 0.882812
vt 0.625000 0.890625
vt 0.375000 0.890625
vt 0.375000 0.351562
vt 0.625000 0.351562
vt 0.625000 0.359375
vt 0.375000 0.359375
vt 0.226562 0.500000
vt 0.234375 0.500000
vt 0.234375 0.750000
vt 0.226562 0.750000
vt 0.257812 0.500000
vt 0.265625 0.500000
vt 0.265625 0.750000
vt 0.257812 0.750000
vt 0.375000 0.382812
vt 0.625000 0.382812
vt 0.625000 0.390625
vt 0.375000 0.390625
vt 0.375000 0.851562
vt 0.625000 0.851562
vt 0.625000 0.859375
vt 0.375000 0.859375
vt 0.726562 0.500000
vt 0.734375 0.500000
vt 0.734375 0.750000
vt 0.726562 0.750000
vt 0.695312 0.500000
vt 0.703125 0.500000
vt 0.703125 0.750000
vt 0.695312 0.750000
vt 0.375000 0.820312
vt 0.625000 0.820312
vt 0.625000 0.828125
vt 0.375000 0.828125
vt 0.375000 0.414062
vt 0.625000 0.414062
vt 0.625000 0.421875
vt 0.375000 0.421875
vt 0.289062 0.500000
vt 0.296875 0.500000
vt 0.296875 0.750000
vt 0.289062 0.750000
vt 0.375000 0.445312
vt 0.625000 0.445312
vt 0.625000 0.453125
vt 0.375000 0.453125
vt 0.320312 0.500000
vt 0.328125 0.500000
vt 0.328125 0.750000
vt 0.320312 0.750000
vt 0.664062 0.500000
vt 0.671875 0.500000
vt 0.671875 0.750000
vt 0.664062 0.750000
vt 0.375000 0.789062
vt 0.625000 0.789062
vt 0.625000 0.796875
vt 0.375000 0.796875
vt 0.375000 0.757812
vt 0.625000 0.757812
vt 0.625000 0.765625
vt 0.375000 0.765625
vt 0.632812 0.500000
vt 0.640625 0.500000
vt 0.640625 0.750000
vt 0.632812 0.750000
vt 0.351562 0.500000
vt 0.359375 0.500000
vt 0.359375 0.750000
vt 0.351562 0.750000
vt 0.375000 0.476562
vt 0.625000 0.476562
vt 0.625000 0.484375
vt 0.375000 0.484375
vt 0.125000 0.500000
vt 0.125000 0.750000
s 0
f 1/1/1 2/2/1 4/3/1 3/4/1
f 71/5/2 69/6/2 8/7/2 7/8/2
f 7/8/3 8/7/3 6/9/3 5/10/3
f 132/11/4 130/12/4 2/13/4 1/14/4
f 71/15/5 7/8/5 5/10/5 70/16/5
f 131/17/6 4/18/6 2/19/6 130/20/6
f 99/21/6 10/22/6 12/23/6 98/24/6
f 103/25/5 9/26/5 11/27/5 102/28/5
f 100/29/7 98/30/7 12/31/7 11/32/7
f 103/33/8 101/34/8 10/35/8 9/36/8
f 84/37/9 82/38/9 16/39/9 14/40/9
f 83/41/6 13/42/6 16/43/6 82/44/6
f 87/45/5 15/46/5 14/47/5 86/48/5
f 87/49/10 85/50/10 13/51/10 15/52/10
f 75/53/6 17/54/6 20/55/6 74/56/6
f 76/57/11 74/58/11 20/59/11 18/60/11
f 79/61/5 19/62/5 18/63/5 78/64/5
f 79/65/12 77/66/12 17/67/12 19/68/12
f 95/69/13 93/70/13 23/71/13 21/72/13
f 95/73/5 21/74/5 24/75/5 94/76/5
f 92/77/14 90/78/14 22/79/14 24/80/14
f 91/81/6 23/82/6 22/83/6 90/84/6
f 119/85/15 117/86/15 27/87/15 25/88/15
f 119/89/5 25/90/5 28/91/5 118/92/5
f 115/93/6 27/94/6 26/95/6 114/96/6
f 116/97/16 114/98/16 26/99/16 28/100/16
f 108/101/17 106/102/17 32/103/17 30/104/17
f 107/105/6 29/106/6 32/107/6 106/108/6
f 111/109/18 109/110/18 29/111/18 31/112/18
f 111/113/5 31/114/5 30/115/5 110/116/5
f 127/117/5 33/118/5 36/119/5 126/120/5
f 127/121/19 125/122/19 35/123/19 33/124/19
f 123/125/6 35/126/6 34/127/6 122/128/6
f 124/129/20 122/130/20 34/131/20 36/132/20
f 129/133/21 131/134/21 39/135/21 37/136/21
f 129/137/5 37/138/5 40/139/5 132/140/5
f 125/141/6 39/142/6 38/143/6 128/144/6
f 126/145/22 128/146/22 38/147/22 40/148/22
f 118/149/23 120/150/23 44/151/23 42/152/23
f 117/153/6 41/154/6 44/155/6 120/156/6
f 121/157/5 43/158/5 42/159/5 124/160/5
f 121/161/24 123/162/24 41/163/24 43/164/24
f 113/165/5 45/166/5 48/167/5 116/168/5
f 113/169/25 115/170/25 47/171/25 45/172/25
f 110/173/26 112/174/26 46/175/26 48/176/26
f 109/177/6 47/178/6 46/179/6 112/180/6
f 101/181/6 49/182/6 52/183/6 104/184/6
f 102/185/27 104/186/27 52/187/27 50/188/27
f 105/189/28 107/190/28 49/191/28 51/192/28
f 105/193/5 51/194/5 50/195/5 108/196/5
f 97/197/5 53/198/5 56/199/5 100/200/5
f 97/201/29 99/202/29 55/203/29 53/204/29
f 94/205/30 96/206/30 54/207/30 56/208/30
f 93/209/6 55/210/6 54/211/6 96/212/6
f 85/213/6 57/214/6 60/215/6 88/216/6
f 86/217/31 88/218/31 60/219/31 58/220/31
f 89/221/32 91/222/32 57/223/32 59/224/32
f 89/225/5 59/226/5 58/227/5 92/228/5
f 81/229/33 83/230/33 63/231/33 61/232/33
f 81/233/5 61/234/5 64/235/5 84/236/5
f 77/237/6 63/238/6 62/239/6 80/240/6
f 78/241/34 80/242/34 62/243/34 64/244/34
f 70/245/35 72/246/35 68/247/35 66/248/35
f 69/249/6 65/250/6 68/251/6 72/252/6
f 73/253/5 67/254/5 66/255/5 76/256/5
f 73/257/36 75/258/36 65/259/36 67/260/36
f 8/7/6 69/249/6 72/252/6 6/9/6
f 5/10/37 6/9/37 72/246/37 70/245/37
f 67/254/5 71/15/5 70/16/5 66/255/5
f 67/260/38 65/259/38 69/6/38 71/5/38
f 19/68/39 17/67/39 75/258/39 73/257/39
f 19/62/5 73/253/5 76/256/5 18/63/5
f 66/248/40 68/247/40 74/58/40 76/57/40
f 65/250/6 75/53/6 74/56/6 68/251/6
f 18/60/41 20/59/41 80/242/41 78/241/41
f 17/54/6 77/237/6 80/240/6 20/55/6
f 61/232/42 63/231/42 77/66/42 79/65/42
f 61/234/5 79/61/5 78/64/5 64/235/5
f 15/46/5 81/233/5 84/236/5 14/47/5
f 15/52/43 13/51/43 83/230/43 81/229/43
f 63/238/6 83/41/6 82/44/6 62/239/6
f 64/244/44 62/243/44 82/38/44 84/37/44
f 14/40/45 16/39/45 88/218/45 86/217/45
f 13/42/6 85/213/6 88/216/6 16/43/6
f 59/224/46 57/223/46 85/50/46 87/49/46
f 59/226/5 87/45/5 86/48/5 58/227/5
f 21/74/5 89/225/5 92/228/5 24/75/5
f 21/72/47 23/71/47 91/222/47 89/221/47
f 57/214/6 91/81/6 90/84/6 60/215/6
f 58/220/48 60/219/48 90/78/48 92/77/48
f 23/82/6 93/209/6 96/212/6 22/83/6
f 24/80/49 22/79/49 96/206/49 94/205/49
f 53/198/5 95/73/5 94/76/5 56/199/5
f 53/204/50 55/203/50 93/70/50 95/69/50
f 9/36/51 10/35/51 99/202/51 97/201/51
f 9/26/5 97/197/5 100/200/5 11/27/5
f 56/208/52 54/207/52 98/30/52 100/29/52
f 55/210/6 99/21/6 98/24/6 54/211/6
f 11/32/53 12/31/53 104/186/53 102/185/53
f 10/22/6 101/181/6 104/184/6 12/23/6
f 51/192/54 49/191/54 101/34/54 103/33/54
f 51/194/5 103/25/5 102/28/5 50/195/5
f 31/114/5 105/193/5 108/196/5 30/115/5
f 31/112/55 29/111/55 107/190/55 105/189/55
f 49/182/6 107/105/6 106/108/6 52/183/6
f 50/188/56 52/187/56 106/102/56 108/101/56
f 29/106/6 109/177/6 112/180/6 32/107/6
f 30/104/57 32/103/57 112/174/57 110/173/57
f 45/166/5 111/113/5 110/116/5 48/167/5
f 45/172/58 47/171/58 109/110/58 111/109/58
f 25/88/59 27/87/59 115/170/59 113/169/59
f 25/90/5 113/165/5 116/168/5 28/91/5
f 48/176/60 46/175/60 114/98/60 116/97/60
f 47/178/6 115/93/6 114/96/6 46/179/6
f 27/94/6 117/153/6 120/156/6 26/95/6
f 28/100/61 26/99/61 120/150/61 118/149/61
f 43/158/5 119/89/5 118/92/5 42/159/5
f 43/164/62 41/163/62 117/86/62 119/85/62
f 33/124/63 35/123/63 123/162/63 121/161/63
f 33/118/5 121/157/5 124/160/5 36/119/5
f 42/152/64 44/151/64 122/130/64 124/129/64
f 41/154/6 123/125/6 122/128/6 44/155/6
f 36/132/65 34/131/65 128/146/65 126/145/65
f 35/126/6 125/141/6 128/144/6 34/127/6
f 37/136/66 39/135/66 125/122/66 127/121/66
f 37/138/5 127/117/5 126/120/5 40/139/5
f 3/261/5 129/137/5 132/140/5 1/262/5
f 3/4/67 4/3/67 131/134/67 129/133/67
f 39/142/6 131/17/6 130/20/6 38/143/6
f 40/148/68 38/147/68 130/12/68 132/11/68
